<?xml version="1.0" encoding="UTF-8"?>
<svg id="Layer_1" data-name="Layer 1" xmlns="http://www.w3.org/2000/svg" viewBox="0 0 403.22 74.6">
  <defs>
    <style>
      .cls-1 {
        fill: none;
        stroke: #fff;
        stroke-miterlimit: 10;
        stroke-width: 1.5px;
      }
    </style>
  </defs>
  <path class="cls-1" d="m21.63,72.15H.93L16.03.95h20.7l-15.1,71.2Z"/>
  <path class="cls-1" d="m49.63,72.15h-20.8l11-51.6h20.8l-11,51.6Zm11.9-55.8h-20.8l3.3-15.6h20.8l-3.3,15.6Z"/>
  <path class="cls-1" d="m83.13,73.85c-9.33,0-16.05-1.52-20.15-4.55s-5.68-7.58-4.75-13.65h19.8c-.27,1.8.15,3.12,1.25,3.95,1.1.83,2.95,1.25,5.55,1.25,3.87,0,6-.93,6.4-2.8.47-2-.77-3.27-3.7-3.8l-9.8-1.4c-5.67-.8-9.77-2.73-12.3-5.8-2.53-3.07-3.27-7.17-2.2-12.3,2.07-10.27,11.4-15.4,28-15.4,8.6,0,14.78,1.6,18.55,4.8,3.77,3.2,5.22,7.57,4.35,13.1h-18.6c.2-1.8-.15-3.08-1.05-3.85-.9-.77-2.52-1.15-4.85-1.15-4,0-6.2.97-6.6,2.9-.2.93,0,1.67.6,2.2.6.53,1.63.9,3.1,1.1l9.8,1.4c12.13,1.67,17.13,7.67,15,18-1,5.13-3.92,9.08-8.75,11.85-4.83,2.77-11.38,4.15-19.65,4.15Z"/>
  <path class="cls-1" d="m157.42,34.85h-10.7l-3.5,16.4c-.33,1.6-.1,2.92.7,3.95.8,1.04,1.93,1.55,3.4,1.55h4.5l-3.3,15.4c-3.47.33-6.1.5-7.9.5-15.07,0-21.17-7.03-18.3-21.1l3.6-16.7h-7.5l3-14.3h7.5l3.4-15.9h20.8l-3.4,15.9h10.7l-3,14.3Z"/>
  <path class="cls-1" d="m169.17,25.85c5.63-4.33,12.68-6.5,21.15-6.5s14.97,2.37,19.5,7.1c4.47,4.73,6.23,11.17,5.3,19.3-.2,1.67-.6,3.6-1.2,5.8h-38.1c-.07,2.67.63,4.65,2.1,5.95,1.46,1.3,3.53,1.95,6.2,1.95,3.27,0,5.83-.93,7.7-2.8h20c-4.33,11.13-14.07,16.7-29.2,16.7-9,0-15.77-2.67-20.3-8-4.6-5.27-5.93-12.53-4-21.8,1.6-7.47,5.22-13.37,10.85-17.7Zm19.65,7.3c-5.27,0-8.83,2.53-10.7,7.6h18.3c.4-5.07-2.13-7.6-7.6-7.6Z"/>
  <path class="cls-1" d="m261.72,19.35c5.8,0,9.96,2.02,12.5,6.05,2.53,4.03,2.93,9.98,1.2,17.85l-6.2,28.9h-20.8l5.9-27.8c1.07-5.07-.6-7.6-5-7.6-4.07,0-6.57,2.3-7.5,6.9h-.1l-6,28.5h-20.8l11-51.6h20.4l-1.6,7.5h.3c4.2-5.8,9.77-8.7,16.7-8.7Z"/>
  <path class="cls-1" d="m343.32,34.85h-10.7l-3.5,16.4c-.33,1.6-.1,2.92.7,3.95.8,1.04,1.93,1.55,3.4,1.55h4.5l-3.3,15.4c-3.47.33-6.1.5-7.9.5-15.07,0-21.17-7.03-18.3-21.1l3.6-16.7h-7.5l3-14.3h7.5l3.4-15.9h20.8l-3.4,15.9h10.7l-3,14.3Z"/>
  <path class="cls-1" d="m368.82,73.35c-9,0-15.83-2.63-20.5-7.9-4.73-5.2-6.13-12.37-4.2-21.5,1.6-7.67,5.22-13.67,10.85-18,5.63-4.33,12.95-6.5,21.95-6.5s15.93,2.63,20.6,7.9c4.67,5.27,6.03,12.5,4.1,21.7-1.6,7.47-5.28,13.38-11.05,17.75-5.77,4.37-13.02,6.55-21.75,6.55Zm2.5-16c5.07,0,8.37-3.37,9.9-10.1.8-3.8.53-6.72-.8-8.75-1.33-2.03-3.3-3.05-5.9-3.05-5.27,0-8.6,3.4-10,10.2-.8,3.87-.55,6.78.75,8.75,1.3,1.97,3.32,2.95,6.05,2.95Z"/>
</svg>